<svg xmlns="http://www.w3.org/2000/svg" xml:space="preserve" width="2000" height="1500" data-id="lg_DwpjwmFWF0RKtnKwvb" data-version="1" viewBox="0 0 2000 1500"><path fill="#d6350e" stroke="transparent" d="M0 0h2000v1500H0z"/><g data-padding="20"><g transform="translate(-1525.51 -1143.176)scale(2.45991)"><rect width="560" height="440.7" x="346.167" y="149.031" fill="none" rx="0" ry="0" transform="translate(400.5 400.23)"/><path fill="#fff" d="M928.967 611.111v70.65q-16.76 0-23.9 4.48-7.14 4.47-7.14 17.04v117.69h38.09q7.81 0 13.14-1.53 5.33-1.52 8.38-6.38 3.04-4.85 4.28-13.61t1.24-23.23h66.65v115.4h-275.36v-70.65q16.76 0 23.99-4.48 7.24-4.47 7.24-16.85v-96.36q0-12.57-7.24-17.04-7.23-4.48-23.99-4.48v-70.65Z"/><path fill="#fff" d="M1150.267 603.501q12.76 0 23.9 2.09 11.14 2.1 20.28 5.43t15.81 7.04q6.66 3.72 10.85 6.77v-13.72h62.84v103.79h-66.65q0-12.76-3.14-21.33t-8.38-13.9-12.28-7.62q-7.05-2.28-15.24-2.28-11.23 0-19.23 4.28-8 4.29-13.04 13.81-5.05 9.52-7.62 25.32-2.57 15.81-2.57 38.47 0 23.04 2.76 38.56t8.38 25.14 14.37 13.9q8.76 4.29 20.95 4.29 8.19 0 15.81-3.15 7.61-3.14 13.42-9.61 5.81-6.48 9.14-16.19 3.34-9.71 3.34-23.42h66.27q0 24.18-7.62 45.7t-23.81 37.71q-16.18 16.18-41.13 25.7-24.94 9.53-59.22 9.53-30.85 0-58.37-8.38t-47.99-26.28-32.37-45.99-11.9-67.51 12.09-67.51q12.09-28.08 31.99-45.98 19.9-17.91 45.42-26.28 25.52-8.38 52.94-8.38"/><rect width="307.428" height="35.03" x="472.453" y="351.866" fill="none" rx="0" ry="0" transform="translate(400.5 578.88)"/><path fill="#fff" d="M875.617 938.391v-1.69h5.72v1.69h-1.98v17.39h3.94v-4.83h1.65v6.54h-9.33v-1.71h1.85v-17.39Zm26.26 17.39-.82-5.36h-3.06l-.74 5.36h1.64v1.71h-4.91v-1.71h1.44l2.79-17.39h-2.05v-1.69h4.44l3.13 19.08h1.39v1.71h-4.9v-1.71Zm-2.39-16.01-1.27 9.05h2.6Zm14.56-1.38v-1.69h5.72v1.69h-1.98v17.39h3.94v-4.83h1.65v6.54h-9.33v-1.71h1.85v-17.39Zm18.46 0v-1.69h5.6v1.69h-1.86v17.39h1.86v1.71h-5.6v-1.71h1.85v-17.39Zm16.5 4.84h-1.65v-6.53h10.2v6.53h-1.65v-4.87h-2.52v17.42h2.18v1.71h-6.23v-1.71h2.16v-17.42h-2.49Zm17.78-4.84v-1.69h5.6v1.69h-1.86v7.27h5.18v-7.27h-1.85v-1.69h5.6v1.69h-1.86v17.39h1.86v1.71h-5.6v-1.71h1.85v-8.37h-5.18v8.37h1.86v1.71h-5.6v-1.71h1.85v-17.39Zm40.9 19.52q-1.19 0-2.18-.64t-1.7-1.97q-.7-1.32-1.1-3.36-.39-2.04-.39-4.82 0-2.68.42-4.71.43-2.03 1.14-3.37.71-1.35 1.65-2.03t1.97-.68q.98 0 1.63.43.64.43 1.11 1.07v-1.12h1.63v7.16h-1.63v-2.08q0-.91-.21-1.6-.2-.7-.55-1.18-.35-.47-.81-.72t-.98-.25q-.86 0-1.48.63-.62.64-1.02 1.82t-.59 2.86-.19 3.77.16 3.76.56 2.85q.4 1.17 1.06 1.81.66.63 1.66.63.68 0 1.16-.39.49-.4.83-.99.35-.6.58-1.3.23-.69.39-1.31h1.74q-.27 1.34-.72 2.41-.44 1.07-1.05 1.8-.6.73-1.37 1.13-.78.39-1.72.39m13.69-19.52v-1.69h5.6v1.69h-1.86v7.27h5.18v-7.27h-1.85v-1.69h5.6v1.69h-1.86v17.39h1.86v1.71h-5.6v-1.71h1.85v-8.37h-5.18v8.37h1.86v1.71h-5.6v-1.71h1.85v-17.39Zm32.72 8.73q0 2.8-.41 4.84-.41 2.03-1.11 3.36-.71 1.32-1.68 1.96-.97.63-2.07.63-1.14 0-2.1-.63-.97-.64-1.68-1.96-.72-1.33-1.13-3.36-.4-2.04-.4-4.84 0-2.79.4-4.82.41-2.04 1.13-3.37t1.69-1.97q.97-.63 2.09-.63 1.1 0 2.07.63.97.64 1.68 1.96.7 1.33 1.11 3.36.41 2.04.41 4.84m-2.09 0q0-4.42-.8-6.74-.81-2.31-2.38-2.31-1.62 0-2.42 2.34-.8 2.33-.8 6.71 0 4.42.8 6.74.8 2.31 2.42 2.31 1.57 0 2.38-2.31.8-2.32.8-6.74m11.32-8.72v-1.69h5.61v1.69h-1.86v13.34q0 1.04.06 1.87.06.84.29 1.42t.7.89q.46.31 1.28.31t1.27-.31q.46-.31.68-.89.23-.58.28-1.42.06-.83.06-1.87v-13.34h-1.86v-1.69h5.61v1.69h-1.86v13.58q0 1.63-.22 2.76t-.71 1.83q-.49.71-1.3 1.02-.8.32-1.95.32-1.16 0-1.97-.32-.8-.31-1.3-1.02-.5-.7-.72-1.83-.23-1.13-.23-2.76v-13.58Zm20.9-.01v-1.69h5.82q1.14 0 2.08.49.94.5 1.62 1.71.68 1.2 1.05 3.2t.37 4.98q0 3-.37 5-.37 2.01-1.04 3.21-.68 1.2-1.62 1.7-.93.5-2.09.5h-5.82v-1.71h1.84v-17.39Zm8.97 8.69q0-2.54-.2-4.22-.21-1.68-.61-2.68-.4-.99-.97-1.39-.58-.4-1.3-.4h-2.15v17.39h2.15q.72 0 1.3-.41.57-.4.97-1.4.4-.99.61-2.67.2-1.68.2-4.22m11.43-8.69v-1.69h5.6v1.69h-1.86v7.27h5.17v-7.27h-1.84v-1.69h5.6v1.69h-1.86v17.39h1.86v1.71h-5.6v-1.71h1.84v-8.37h-5.17v8.37h1.86v1.71h-5.6v-1.71h1.84v-17.39Zm29.47 17.39-.82-5.36h-3.05l-.75 5.36h1.64v1.71h-4.91v-1.71h1.44l2.79-17.39h-2.05v-1.69h4.44l3.13 19.08h1.4v1.71h-4.91v-1.71Zm-2.39-16.01-1.27 9.05h2.6Zm21.02 17.72v-1.71h1.11l-2.46-7.25h-1.36v7.25h1.86v1.71h-5.6v-1.71h1.85v-17.39h-1.85v-1.69h5.69q1.99 0 2.93 1.48.95 1.48.95 4.49 0 2.35-.64 3.74-.63 1.4-2.06 1.91l2.7 7.46h1.68v1.71Zm1.04-14.82q0-1.33-.1-2.17-.11-.84-.36-1.31-.26-.47-.68-.63-.41-.17-1.02-.17h-1.59v8.43h1.56q.61 0 1.03-.14.42-.15.68-.59.26-.45.37-1.26t.11-2.16m12.11-4.28v-1.69h5.61v1.69h-1.71l2.3 8.1 2.26-8.1h-1.71v-1.69h5.61v1.69h-1.89l-3.35 10.29v7.1h2.17v1.71h-6.22v-1.71h2.16v-7.1l-3.34-10.29Z"/></g><path fill="transparent" stroke="transparent" stroke-width="2.551" d="M285.714 187.5h1428.572v1125H285.714z"/></g></svg>